<svg width="23" height="24" viewBox="0 0 23 24" fill="none" xmlns="http://www.w3.org/2000/svg">
<path d="M20.0675 9.34522V15.0833C20.0675 18.4605 17.7593 21.3934 14.4946 22.1646C12.566 22.6202 10.5589 22.6202 8.63035 22.1646C5.36564 21.3934 3.05749 18.4605 3.05749 15.0833V9.34522M22.0625 11.1077L14.8623 3.85628C13.3068 2.28966 12.529 1.50635 11.5625 1.50635C10.596 1.50635 9.81822 2.28966 8.26267 3.85628L1.0625 11.1077M13.75 22.2698L13.8862 21.9836C14.2714 21.1741 14.3899 20.262 14.2243 19.38L14.2018 19.2598C14.0145 18.2622 13.2798 17.459 12.3079 17.1893C11.8201 17.054 11.3049 17.054 10.8171 17.1893C9.8452 17.459 9.11047 18.2622 8.92322 19.2598L8.90066 19.38C8.73511 20.262 8.85357 21.1741 9.23876 21.9836L9.375 22.2698" stroke="#AED489" stroke-width="1.5" stroke-linecap="round"/>
</svg>
