<svg width="19" height="24" viewBox="0 0 19 24" fill="none" xmlns="http://www.w3.org/2000/svg">
<path d="M0.9375 19.9933C0.9375 17.0523 2.99854 14.5473 5.79955 14.0838L6.05185 14.042C8.29476 13.6709 10.5802 13.6709 12.8231 14.042L13.0754 14.0838C15.8765 14.5473 17.9375 17.0523 17.9375 19.9933C17.9375 21.2644 16.9436 22.2949 15.7176 22.2949H3.15737C1.93137 22.2949 0.9375 21.2644 0.9375 19.9933Z" stroke="#AED489" stroke-width="1.5"/>
<path d="M14.3828 6.09375C14.3828 8.74407 12.1687 10.8926 9.4375 10.8926C6.70628 10.8926 4.49219 8.74407 4.49219 6.09375C4.49219 3.44343 6.70628 1.29492 9.4375 1.29492C12.1687 1.29492 14.3828 3.44343 14.3828 6.09375Z" stroke="#AED489" stroke-width="1.5"/>
</svg>
