<svg width="23" height="22" viewBox="0 0 23 22" fill="none" xmlns="http://www.w3.org/2000/svg">
<path d="M16.5462 0.645264C16.5303 0.645264 16.5091 0.645264 16.4933 0.645264C14.3938 0.645264 12.5375 1.74776 11.4692 3.37526C10.401 1.74776 8.54472 0.645264 6.4452 0.645264C6.42933 0.645264 6.40818 0.645264 6.39231 0.645264C3.11876 0.676763 0.469238 3.31751 0.469238 6.57776C0.469238 8.52026 1.32597 11.2765 2.99712 13.5445C6.18078 17.8653 11.4692 21.6453 11.4692 21.6453C11.4692 21.6453 16.7577 17.8653 19.9414 13.5445C21.6125 11.2765 22.4692 8.52026 22.4692 6.57776C22.4692 3.31751 19.8197 0.676763 16.5462 0.645264ZM18.7462 12.6783C16.4933 15.739 13.0611 18.5635 11.4692 19.7973C9.87741 18.5635 6.4452 15.7338 4.19232 12.673C2.6428 10.573 1.95001 8.10026 1.95001 6.57776C1.95001 5.39126 2.41539 4.27826 3.25097 3.43826C4.09183 2.59826 5.2077 2.13101 6.40289 2.12051C6.40289 2.12051 6.40289 2.12051 6.40818 2.12051C6.41876 2.12051 6.42933 2.12051 6.43991 2.12051H6.45049C7.20674 2.12051 7.9577 2.31476 8.62405 2.68751C9.26924 3.04976 9.82982 3.56426 10.2317 4.18376C10.5067 4.59851 10.9721 4.85051 11.4745 4.85051C11.9769 4.85051 12.4423 4.59851 12.7173 4.18376C13.1245 3.56426 13.6798 3.04976 14.325 2.68751C14.9914 2.31476 15.7423 2.12051 16.4986 2.12051H16.5091C16.5197 2.12051 16.5303 2.12051 16.5409 2.12051C16.5409 2.12051 16.5409 2.12051 16.5462 2.12051C17.7361 2.13101 18.8572 2.59826 19.6981 3.43826C20.5389 4.27826 20.999 5.39651 20.999 6.57776C20.9885 8.10026 20.2957 10.573 18.7462 12.6783Z" fill="#AED489"/>
</svg>
