<svg width="23" height="23" viewBox="0 0 23 23" fill="none" xmlns="http://www.w3.org/2000/svg">
<path d="M1.44294 7.9451C2.20302 4.70477 4.73309 2.1747 7.97342 1.41462C10.3135 0.8657 12.749 0.8657 15.0891 1.41462C18.3294 2.1747 20.8595 4.70477 21.6196 7.9451C22.1685 10.2852 22.1685 12.7206 21.6196 15.0608C20.8595 18.3011 18.3294 20.8312 15.0891 21.5912C12.749 22.1402 10.3135 22.1402 7.97343 21.5912C4.7331 20.8312 2.20302 18.3011 1.44294 15.0608C0.89402 12.7206 0.89402 10.2852 1.44294 7.9451Z" stroke="#AED489" stroke-width="1.5" stroke-linecap="round"/>
<path d="M15.1118 21.3582C15.1118 18.4739 15.1118 17.0318 16.0259 16.1358C16.9399 15.2397 18.4111 15.2397 21.3535 15.2397" stroke="#AED489" stroke-width="1.5" stroke-linecap="round"/>
<path d="M8.41602 8.34058H11.416M8.41602 11.3406H13.416" stroke="#AED489" stroke-width="1.5" stroke-linecap="round"/>
</svg>
