<svg width="23" height="25" viewBox="0 0 23 25" fill="none" xmlns="http://www.w3.org/2000/svg">
<path d="M9.03671 1.70132C6.36365 2.58045 4.27869 4.77976 3.54373 7.53187L3.4753 7.7881C2.99751 9.57721 2.90972 11.4505 3.21804 13.2775L3.24793 13.4547C3.26406 13.5503 3.28244 13.645 3.30301 13.7388C2.24221 14.2048 1.5 15.2765 1.5 16.524C1.5 17.966 2.50034 19.2087 3.89277 19.4965L4.36234 19.5936C9.07242 20.5671 13.9276 20.5671 18.6377 19.5936L19.1072 19.4965C20.4997 19.2087 21.5 17.966 21.5 16.524C21.5 15.2758 20.757 14.2037 19.6954 13.7381C19.7189 13.6334 19.7398 13.5275 19.7578 13.4206L19.7895 13.2329C20.093 11.4344 20.0139 9.59096 19.5575 7.82611L19.466 7.47225C18.7642 4.75831 16.7561 2.58945 14.1305 1.70966C12.483 1.15762 10.6872 1.15852 9.03671 1.70132Z" stroke="#AED489" stroke-width="1.5" stroke-linecap="round"/>
<path d="M8.8677 20.229C8.8052 20.6665 8.53072 20.3392 8.65493 20.9097L8.72845 21.2473C8.93482 22.1951 9.66322 22.9404 10.6027 23.1651L10.8014 23.2126C11.2609 23.3225 11.7397 23.3225 12.1992 23.2126L12.398 23.1651C13.3374 22.9404 14.0658 22.1951 14.2722 21.2473L14.3457 20.9097C14.4699 20.3392 14.2271 20.7915 14.149 20.229" stroke="#AED489" stroke-width="1.5" stroke-linecap="round"/>
</svg>
